<?xml version="1.0" encoding="UTF-8" standalone="no"?>
<!DOCTYPE svg PUBLIC "-//W3C//DTD SVG 1.1//EN" "http://www.w3.org/Graphics/SVG/1.1/DTD/svg11.dtd">
<svg version="1.1" xmlns="http://www.w3.org/2000/svg" xmlns:xlink="http://www.w3.org/1999/xlink" preserveAspectRatio="xMidYMid meet" viewBox="-0.9999999999998295 -1.0000000000006342 353.99999999999994 566.0000000000005" width="350" height="562"><defs><path d="M0 62L350 62L350 562L0 562L0 62Z" id="i1Uicxc4xo"></path><path d="M350 111.99L0 111.99" id="b5raghYVV"></path><path d="M350 161.99L0 161.99" id="b5xodS6sqt"></path><path d="M350 211.99L0 211.99" id="e2OvQNPMkQ"></path><path d="M350 261.99L0 261.99" id="bbUKpX8lY"></path><path d="M350 311.99L0 311.99" id="a12l9moor9"></path><path d="M350 361.99L0 361.99" id="bSAdHyCP"></path><path d="M350 411.99L0 411.99" id="b3OAhm7tUf"></path><path d="M350 461.99L0 461.99" id="bwlnsbkO7"></path><path d="M350 511.99L0 511.99" id="b6l4Yw9zP"></path><path d="M20 74.7L330 74.7L330 100.7L20 100.7L20 74.7Z" id="b167devJcZ"></path><path d="M20 124.7L330 124.7L330 150.7L20 150.7L20 124.7Z" id="e1duCJQUjY"></path><path d="M20 174.7L330 174.7L330 200.7L20 200.7L20 174.7Z" id="bu9UE9ker"></path><path d="M20 224.7L330 224.7L330 250.7L20 250.7L20 224.7Z" id="alquObKWO"></path><path d="M20 274.7L330 274.7L330 300.7L20 300.7L20 274.7Z" id="b8cVXLQYo"></path><path d="M20 324.7L330 324.7L330 350.7L20 350.7L20 324.7Z" id="a6v3IHWzT"></path><path d="M20 374.7L330 374.7L330 400.7L20 400.7L20 374.7Z" id="asLrDgXS6"></path><path d="M20 424.7L330 424.7L330 450.7L20 450.7L20 424.7Z" id="g8qb7ElxDc"></path><path d="M20 474.7L330 474.7L330 500.7L20 500.7L20 474.7Z" id="c9XT1BLeb"></path><path d="M20 524.7L330 524.7L330 550.7L20 550.7L20 524.7Z" id="b3uwkhgsRX"></path><path d="M75 0L275 0L275 38L75 38L75 0Z" id="b7jJcRyCM"></path></defs><g><g><g><use xlink:href="#i1Uicxc4xo" opacity="1" fill-opacity="0" stroke="#eeeeee" stroke-width="1" stroke-opacity="1"></use></g></g><g><use xlink:href="#b5raghYVV" opacity="1" fill="#eeeeee" fill-opacity="1"></use><g><use xlink:href="#b5raghYVV" opacity="1" fill-opacity="0" stroke="#eeeeee" stroke-width="1" stroke-opacity="1"></use></g></g><g><use xlink:href="#b5xodS6sqt" opacity="1" fill="#eeeeee" fill-opacity="1"></use><g><use xlink:href="#b5xodS6sqt" opacity="1" fill-opacity="0" stroke="#eeeeee" stroke-width="1" stroke-opacity="1"></use></g></g><g><use xlink:href="#e2OvQNPMkQ" opacity="1" fill="#eeeeee" fill-opacity="1"></use><g><use xlink:href="#e2OvQNPMkQ" opacity="1" fill-opacity="0" stroke="#eeeeee" stroke-width="1" stroke-opacity="1"></use></g></g><g><use xlink:href="#bbUKpX8lY" opacity="1" fill="#eeeeee" fill-opacity="1"></use><g><use xlink:href="#bbUKpX8lY" opacity="1" fill-opacity="0" stroke="#eeeeee" stroke-width="1" stroke-opacity="1"></use></g></g><g><use xlink:href="#a12l9moor9" opacity="1" fill="#eeeeee" fill-opacity="1"></use><g><use xlink:href="#a12l9moor9" opacity="1" fill-opacity="0" stroke="#eeeeee" stroke-width="1" stroke-opacity="1"></use></g></g><g><use xlink:href="#bSAdHyCP" opacity="1" fill="#eeeeee" fill-opacity="1"></use><g><use xlink:href="#bSAdHyCP" opacity="1" fill-opacity="0" stroke="#eeeeee" stroke-width="1" stroke-opacity="1"></use></g></g><g><use xlink:href="#b3OAhm7tUf" opacity="1" fill="#eeeeee" fill-opacity="1"></use><g><use xlink:href="#b3OAhm7tUf" opacity="1" fill-opacity="0" stroke="#eeeeee" stroke-width="1" stroke-opacity="1"></use></g></g><g><use xlink:href="#bwlnsbkO7" opacity="1" fill="#eeeeee" fill-opacity="1"></use><g><use xlink:href="#bwlnsbkO7" opacity="1" fill-opacity="0" stroke="#eeeeee" stroke-width="1" stroke-opacity="1"></use></g></g><g><use xlink:href="#b6l4Yw9zP" opacity="1" fill="#eeeeee" fill-opacity="1"></use><g><use xlink:href="#b6l4Yw9zP" opacity="1" fill-opacity="0" stroke="#eeeeee" stroke-width="1" stroke-opacity="1"></use></g></g><g><use xlink:href="#b167devJcZ" opacity="1" fill="#eeeeee" fill-opacity="1"></use></g><g><use xlink:href="#e1duCJQUjY" opacity="1" fill="#eeeeee" fill-opacity="1"></use></g><g><use xlink:href="#bu9UE9ker" opacity="1" fill="#eeeeee" fill-opacity="1"></use></g><g><use xlink:href="#alquObKWO" opacity="1" fill="#eeeeee" fill-opacity="1"></use></g><g><use xlink:href="#b8cVXLQYo" opacity="1" fill="#eeeeee" fill-opacity="1"></use></g><g><use xlink:href="#a6v3IHWzT" opacity="1" fill="#eeeeee" fill-opacity="1"></use></g><g><use xlink:href="#asLrDgXS6" opacity="1" fill="#eeeeee" fill-opacity="1"></use></g><g><use xlink:href="#g8qb7ElxDc" opacity="1" fill="#eeeeee" fill-opacity="1"></use></g><g><use xlink:href="#c9XT1BLeb" opacity="1" fill="#eeeeee" fill-opacity="1"></use></g><g><use xlink:href="#b3uwkhgsRX" opacity="1" fill="#eeeeee" fill-opacity="1"></use></g><g><use xlink:href="#b7jJcRyCM" opacity="1" fill="#eeeeee" fill-opacity="1"></use></g></g></svg>